<?xml version="1.0" encoding="UTF-8"?><svg id="Layer_1" xmlns="http://www.w3.org/2000/svg" viewBox="0 0 338.24 73.08"><path d="M10.13,56.5v-27.68c0-2.57-1.2-5-3.24-6.57L.19,17.09v27.68c0,2.57,1.2,5,3.24,6.57l6.7,5.16Z"/><path d="M66.17,56.5v-27.68c0-2.57-1.2-5-3.24-6.57l-6.7-5.16v27.68c0,2.57,1.2,5,3.24,6.57l6.7,5.16Z"/><path d="M28.81,70.87V14.45c0-2.57-1.2-5-3.24-6.57l-6.7-5.16v56.42c0,2.57,1.2,5,3.24,6.57,0,0,6.7,5.16,6.7,5.16Z"/><path d="M47.49,70.87V14.45c0-2.57-1.2-5-3.24-6.57l-6.7-5.16v56.42c0,2.57,1.2,5,3.24,6.57,0,0,6.7,5.16,6.7,5.16Z"/><path d="M141.33,28.37c-1.36-1.13-2.98-1.97-4.81-2.51s-3.84-.81-5.98-.81c-2.47,0-4.73.39-6.72,1.16s-3.71,1.8-5.11,3.07c-1.4,1.26-2.54,2.69-3.39,4.23-.22.41-.42.81-.6,1.22V11.91h-9.51v48.93h9.51v-20.74c.32-.78.79-1.53,1.4-2.25,1.13-1.33,2.62-2.44,4.44-3.28s3.87-1.26,6.09-1.26,4.19.32,5.57.95c1.36.62,2.36,1.55,2.98,2.75.63,1.21.95,2.77.95,4.62v19.22h9.51v-22.34c0-2.25-.38-4.23-1.13-5.9-.75-1.67-1.83-3.09-3.19-4.22v-.02Z"/><path d="M186.97,27.23c-3.03-1.44-6.88-2.18-11.43-2.18s-8.41.73-11.74,2.17c-3.34,1.45-5.98,3.57-7.85,6.31-1.87,2.74-2.82,6.07-2.82,9.9s.97,7.15,2.89,9.87c1.92,2.71,4.62,4.81,8.03,6.23,3.4,1.42,7.36,2.14,11.77,2.14,3.95,0,7.34-.54,10.1-1.62,2.76-1.07,4.98-2.57,6.59-4.44,1.62-1.88,2.63-4.05,3.01-6.44l.04-.27h-9.2l-.05.16c-.53,1.51-1.75,2.77-3.61,3.73-1.88.98-4.26,1.47-7.09,1.47-2.55,0-4.78-.41-6.62-1.23-1.83-.82-3.3-1.94-4.36-3.33-1-1.32-1.64-2.81-1.9-4.42h32.91v-.22c.24-4.52-.38-8.29-1.86-11.21-1.48-2.93-3.77-5.15-6.82-6.61h.01ZM167.11,34.55c2.03-1.43,4.73-2.15,8-2.15s5.97.68,7.9,2.01c1.83,1.27,2.89,2.99,3.17,5.1h-22.92c.62-1.94,1.92-3.61,3.85-4.96Z"/><path d="M236.35,34.92c-.1-.28-.2-.55-.31-.82-1.13-2.77-2.95-4.99-5.41-6.61s-5.74-2.44-9.76-2.44c-3.63,0-6.93.77-9.81,2.29-2.88,1.52-5.19,3.67-6.87,6.38-1.68,2.71-2.54,5.96-2.54,9.65s.84,6.81,2.5,9.54c1.66,2.74,3.93,4.89,6.76,6.41s6.01,2.29,9.46,2.29c3.08,0,5.76-.56,7.96-1.66,2.2-1.1,4.01-2.57,5.37-4.38,1.11-1.47,2-3.08,2.64-4.78v.92c0,1.35.05,2.74.14,4.12.09,1.39.26,3.01.49,4.81l.03.2h8.85V25.82h-9.51v9.1h0ZM230.29,52.82c-1.95.91-4.3,1.37-6.99,1.37-2.36,0-4.47-.46-6.26-1.37-1.78-.9-3.19-2.17-4.18-3.78-.99-1.6-1.49-3.51-1.49-5.68,0-3.26,1.05-5.9,3.13-7.86,2.08-1.97,5.04-2.96,8.81-2.96,2.69,0,5.03.43,6.96,1.27,1.92.84,3.43,2.07,4.49,3.67,1.06,1.6,1.59,3.58,1.59,5.88,0,2.12-.53,4.02-1.56,5.64-1.04,1.62-2.55,2.91-4.49,3.81h-.01Z"/><path d="M286.62,34.92c-.62-1.68-1.49-3.2-2.57-4.53-1.36-1.67-3.17-2.99-5.37-3.93-2.2-.93-4.9-1.41-8.02-1.41-3.59,0-6.83.77-9.64,2.29-2.81,1.52-5.05,3.67-6.66,6.38-1.61,2.71-2.43,5.96-2.43,9.65s.83,6.81,2.47,9.54c1.64,2.73,3.9,4.89,6.73,6.41,2.83,1.52,6.03,2.29,9.53,2.29,3.08,0,5.76-.56,7.96-1.66,2.2-1.1,4.01-2.57,5.37-4.38,1.11-1.47,2-3.08,2.64-4.78v.92c0,1.48.07,3.09.21,4.78.14,1.69.28,3.09.42,4.15l.03.2h8.85V11.91h-9.51v23.01h-.01ZM280.56,52.82c-1.95.91-4.3,1.37-6.99,1.37-2.36,0-4.47-.46-6.26-1.37-1.78-.9-3.19-2.17-4.18-3.78-.99-1.6-1.49-3.51-1.49-5.68,0-3.26,1.05-5.91,3.13-7.9,2.08-1.99,5.04-2.99,8.81-2.99,2.69,0,5.03.44,6.96,1.3,1.92.86,3.43,2.11,4.49,3.71s1.59,3.58,1.59,5.88c0,2.12-.53,4.02-1.56,5.64-1.04,1.62-2.55,2.91-4.49,3.81h-.01Z"/><path d="M337,46.47c-.78-1.21-1.85-2.19-3.18-2.93-1.31-.72-2.81-1.33-4.46-1.79-1.64-.46-3.39-.89-5.2-1.26-2.12-.37-3.9-.72-5.31-1.04-1.37-.31-2.42-.73-3.11-1.25-.66-.49-.98-1.17-.98-2.07,0-1.13.53-1.99,1.62-2.65,1.12-.67,2.81-1.01,5.02-1.01s3.95.37,5.01,1.11c1.06.73,1.77,1.93,2.13,3.58l.04.18h8.42v-.23c0-2.35-.59-4.46-1.74-6.28-1.16-1.82-2.91-3.25-5.21-4.26-2.29-1-5.2-1.51-8.65-1.51-2.27,0-4.43.24-6.42.7-1.98.47-3.73,1.15-5.21,2.04-1.49.9-2.66,2.02-3.48,3.35-.83,1.33-1.25,2.87-1.25,4.57s.42,3.26,1.26,4.48c.83,1.21,1.96,2.21,3.38,2.99,1.4.77,3.04,1.4,4.85,1.86,1.82.47,3.72.87,5.66,1.19,1.92.27,3.53.58,4.77.9,1.21.31,2.11.73,2.68,1.24.56.49.83,1.17.83,2.08,0,.74-.18,1.41-.52,2-.34.57-.98,1.02-1.89,1.32-.94.31-2.3.47-4.03.47-2.54,0-4.61-.49-6.17-1.46-1.54-.96-2.57-2.22-3.06-3.73l-.05-.16h-8.72l-.03.2c-.1.69,0,1.54.28,2.6.28,1.04.82,2.15,1.6,3.3.78,1.16,1.88,2.25,3.29,3.26,1.4,1.01,3.19,1.84,5.32,2.47,2.12.63,4.68.95,7.61.95,3.3,0,6.18-.41,8.56-1.23,2.39-.82,4.26-2.03,5.56-3.58,1.3-1.57,1.97-3.51,1.97-5.78,0-1.84-.4-3.39-1.18-4.61h-.01Z"/></svg>